<svg width="117" height="52" viewBox="0 0 117 52" fill="none" xmlns="http://www.w3.org/2000/svg">
<rect width="117" height="52" fill="#1E1E1E"/>
<path d="M2 2.41935V35.4839L21.2519 30.6452L13.7185 19.3548L21.2519 16.9355M21.2519 16.9355V0V50V16.9355ZM28.7852 5.64516V30.6452L45.5259 35.4839V25M45.5259 0V16.9355M45.5259 50V25M45.5259 25H53.0593L45.5259 16.9355M45.5259 25V16.9355M82.3556 5.64516H61.4296V21.7742C61.4296 21.7742 74.1835 21.7742 82.3556 21.7742" stroke="black" stroke-width="3"/>
<path d="M59.7556 26.6129H85.7037" stroke="black" stroke-width="3"/>
<path d="M63.1037 32.2581L83.1926 35.4839L63.1037 42.7419L83.1926 48.3871" stroke="black" stroke-width="3"/>
<path d="M112.21 4.03226V47.5806M112.21 47.5806L109.42 5.64516L115 44.3548L112.21 47.5806ZM100.491 5.64516C97.5152 6.18279 91.563 10.1613 91.563 21.7742C91.563 33.3871 97.5152 36.2903 100.491 36.2903C102.909 36.0215 107.746 32.7419 107.746 21.7742C107.746 10.8064 102.909 6.45161 100.491 5.64516Z" stroke="black" stroke-width="3"/>
</svg>
